<svg xmlns="http://www.w3.org/2000/svg" viewBox="0 0 32 29"><title>cart</title><path d="M25.23,21.24c-.31-1-.73-2-1.12-3l-.05-.13a11.38,11.38,0,0,0,1.16-3.52,7.13,7.13,0,0,0,1.14-.22,22.43,22.43,0,0,1,2.27.18A14.45,14.45,0,0,0,26,19.24c-.27.66-.52,1.33-.77,2m-5.46,7.23c.34-.7.66-1.41,1-2.12a14.85,14.85,0,0,0,.87,2.45,13,13,0,0,1-1.83-.33m-9.9.26a19.18,19.18,0,0,0,1.2-2.5,11.84,11.84,0,0,0,.83,2.48,8.64,8.64,0,0,1-2,0M8,27.46c-.18-.44-.26-.93-.46-1.31a.48.48,0,0,0,0-.12A18.23,18.23,0,0,0,7,23.94c.52-1.42.81-3,1.27-4.38.11-.35.24-.69.37-1,.52,1.41,1.05,2.82,1.54,4.24.14.41.26.85.37,1.31A38.68,38.68,0,0,1,8.7,28.31,1.82,1.82,0,0,1,8,27.46M3.8,14.54a18.71,18.71,0,0,0,3.51.1c.23.72.48,1.45.74,2.16a22.57,22.57,0,0,0-1.77,4.89c-.49-1.36-1-2.7-1.39-4.09A10.36,10.36,0,0,0,3.8,14.54m5.82-.3a13.9,13.9,0,0,0-1,1.47l-.5-1.21c.23-.05.47-.1.7-.17a1.87,1.87,0,0,1,.77-.09m5.09-3.57C16,8.72,17.49,6.83,18.92,5c.1-.13.21-.25.31-.37a9.89,9.89,0,0,0,1.45,2.57l0,0,0,0a46.85,46.85,0,0,1-4.41,5.82,7.22,7.22,0,0,0-2.22.31,4,4,0,0,1-1.4.07,14.73,14.73,0,0,0,2-2.77M11.89,6.43l0,0c.64-.72,1.21-1.52,1.81-2.28l.44.6a16.73,16.73,0,0,1,1.69,2.67c-.5.7-1,1.41-1.5,2.1-.11.14-.2.29-.3.44-.74-1.16-1.54-2.27-2.19-3.49M11.4,2.09a3.23,3.23,0,0,1,1.73,1.23,16.06,16.06,0,0,0-1.66,2.2c-.5-1.26-1.23-3.58-.07-3.43M22.87,3.87A20,20,0,0,1,21.4,6.22,12.2,12.2,0,0,1,20,3.79c.13-.14.26-.28.4-.41.7-.92,2.86-1.86,2.52.49m-2.81,8.38c.27.33.48.72.74,1.06l-1,.5c-.44.2-1.4-.14-2.19-.42.5-.58,1.09-1.3,1.71-2.09.24.32.48.64.73.95M16.38,26.7a6.5,6.5,0,0,0,.53,1.54c-.43,0-.86,0-1.29.07.27-.53.53-1.06.76-1.61M14,16.17l-.6-1.4c.57-.11,1.13-.25,1.71-.35A18.5,18.5,0,0,0,14,16.17m3.3-1.65a4.38,4.38,0,0,0,2.37.59,3.8,3.8,0,0,0,.51-.14c-.38.91-.76,1.82-1.16,2.73-.52-1.09-1.1-2.15-1.72-3.18m-.74,8.59c-.62-1.8-1.26-3.61-2-5.39.39-.95.79-1.89,1.22-2.82a.49.49,0,0,0,.59-.11l.06-.07q1,2.13,1.95,4.31c-.35.77-.7,1.54-1.08,2.31-.29.58-.54,1.17-.79,1.77m-6.13-8.73a6.33,6.33,0,0,0,2.09.5l.84,2.48c-.79,1.6-1.44,3.31-2.08,5-.6-1.76-1.29-3.5-2-5.23.37-.88.77-1.76,1.13-2.65,0,0,0-.07,0-.11m3.78,14c-.31,0-.7.07-1.13.14a30.21,30.21,0,0,1-1.22-4.19c.22-.59.45-1.17.7-1.72.5-1.13,1-2.27,1.43-3.41.63,1.85,1.27,3.7,1.9,5.54a30.51,30.51,0,0,1-1.62,3.59.06.06,0,0,1,0,0h-.05m4.31-.13-.25,0a11.91,11.91,0,0,0-1.08-3.39c.52-1.31,1-2.62,1.62-3.89.07-.15.14-.31.22-.47.25.65.49,1.31.72,2s.37,1.22.52,1.85c-.54,1.33-1.12,2.65-1.75,3.95m3-7.09-.54,1.4c-.05-.14-.09-.29-.14-.44-.34-1-.74-2-1.16-3a15.5,15.5,0,0,0,1.5-4.55l.08,0c.54,1.15,1.14,2.26,1.66,3.42-.5,1.05-1,2.1-1.4,3.2m1.08,6.88a25.24,25.24,0,0,1-1.08-3.49c.49-1.25.95-2.51,1.4-3.78.17-.46.37-.91.58-1.37.42,1.19.71,2.42,1.13,3.6-.62,1.7-1.26,3.4-2,5m.72-13.65a4.23,4.23,0,0,0,1.06.21c-.27.71-.57,1.41-.89,2.1a9.69,9.69,0,0,0-1.53-2.38,2.46,2.46,0,0,1,1.36.07m8.3-1.35c-1-.14-2.26.48-3.23.11-1.45-.56-2.59.34-4.1.2-.83-.08-1.74-.8-2.6-.45a3.76,3.76,0,0,0-.68-1,11.64,11.64,0,0,0-1.18-1.15C22.68,7,25.9,1.87,23.06,1.26,20.64.74,18.9,3.3,17.6,5c-.35.45-.67.92-1,1.37a21.07,21.07,0,0,0-2.26-3.24c-.75-.91-2.16-2.58-3.51-2-1.62.65-1.06,3.08-.59,4.26.68,1.71,1.84,4.05,3.39,5.22a12.58,12.58,0,0,1-2,2.58.47.47,0,0,0-.06.09A6.08,6.08,0,0,0,9.47,13c-1.79.2-3.22.76-5.11.49a9.16,9.16,0,0,0-4.07.12c-.51.15-.29,1,.22.91a10,10,0,0,1,2-.09C3.6,17.67,5,20.93,5.91,24.27l0,.09c.17.67.33,1.34.45,2a.47.47,0,0,0,.38.42,4.19,4.19,0,0,0,1.37,2.65c1.11.93,3.11.42,4.37.28a27.16,27.16,0,0,1,7.64,0c.86.15,2.48.62,3.11-.27a.59.59,0,0,0,.11-.37c2.44-4.72,3.64-9.87,6.31-14.5a8.33,8.33,0,0,1,1.75-.32c.67,0,.8-1.11.13-1.2" transform="translate(0 -1)" style="fill:#005380"/></svg>