<svg xmlns="http://www.w3.org/2000/svg" viewBox="0 0 30 22.21"><title>check</title><path d="M5.27,10.71a1.71,1.71,0,0,1,.67.53,2.65,2.65,0,0,1,.33.62c.07.21.15.42.23.61a1.36,1.36,0,0,0,.41.53,37.52,37.52,0,0,0,2.56,3.58c1,1.26,1.13,2.42,2.93,3.91.78-.4,5.25-6.52,6-7.07s2.18-2.8,2.92-3.41a24.56,24.56,0,0,0,2-1.82C24,7.59,24.52,7,25,6.52a11,11,0,0,0,.71-1,3.68,3.68,0,0,1,.59-.68A2,2,0,0,1,27,4.4a4.3,4.3,0,0,1,1.53-.06,2.84,2.84,0,0,1,2.35,2,3.13,3.13,0,0,1-.18,2.09,1.6,1.6,0,0,1-.41.67,7.21,7.21,0,0,1-1,.62,1.22,1.22,0,0,0-.5.47,20.88,20.88,0,0,1-4.73,4.55c-2,1.47-7.61,10.43-10.79,11.8A24.14,24.14,0,0,1,9.44,23.9a25.14,25.14,0,0,1-2.85-2.76,31.06,31.06,0,0,1-2.06-2.62L3.09,16.41a.93.93,0,0,0-.38-.32,8.28,8.28,0,0,1-.67-.5,4.66,4.66,0,0,1-.65-.68A1.74,1.74,0,0,1,1,14.12a2.84,2.84,0,0,1,.12-1.38,3.71,3.71,0,0,1,.76-1.41,2.66,2.66,0,0,1,1.38-.85A3,3,0,0,1,5.27,10.71Z" transform="translate(-1 -4.3)" style="fill:#005380"/></svg>