<svg width="32" height="32" viewBox="0 0 32 32" xmlns="http://www.w3.org/2000/svg" xmlns:xlink="http://www.w3.org/1999/xlink"><title>Icon / Star</title><defs><path d="M30.95 12.958c.363.485-1.41 1.344-1.41 1.344-2.097.86-3.58 3.138-5.17 4.557.94 4.406 1.518 4.556 3.435 10.046 0 0 .976.97-.18 1.68-1.05.785-1.484-.186-1.592-.485-3.544-2.763-5.244-5.34-7.414-6.236-2.967 2.69-3.762 3.25-6.62 6.312-.072.224-.433 1.008-1.23.784-.83-.15-.76-1.008-.722-1.27-.543-3.25.76-6.685.868-9.076-2.568-.224-4.738-1.157-8.355-2.353-.36.04-1.41.076-1.554-.633-.108-.822 1.23-1.382 1.23-1.382 3.363-.673 7.45-2.24 9.8-3.25C12.255 11.39 13.7 6.833 15.4 2.09c.145-.337 0-.748.615-1.01.723-.298 1.157.3 1.266.673 1.954 4.968 3.002 7.32 4.05 9.45 2.967.485 3.184.26 7.705 1.045 0 0 1.518.15 1.916.71z" id="a"/></defs><use fill="#005380" xlink:href="#a" fill-rule="evenodd"/></svg>