<svg xmlns="http://www.w3.org/2000/svg" xmlns:xlink="http://www.w3.org/1999/xlink" width="1140" height="150" viewBox="0 0 1140 150">
    <defs>
        <path id="a" d="M0 0h1140v150H0z"/>
        <path id="c" d="M350.992 134.527c4.238 5.462-16.529 15.126-16.529 15.126-24.581 9.664-41.957 35.295-60.605 51.262 11.019 49.58 17.8 51.261 40.262 113.027 0 0 11.443 10.925-2.119 18.908-12.29 8.824-17.376-2.1-18.648-5.462-41.534-31.093-61.453-60.086-86.882-70.17-34.753 30.253-44.077 36.556-77.558 71.01-.848 2.521-5.086 11.345-14.41 8.824-9.747-1.68-8.9-11.345-8.476-14.286-6.357-36.556 8.9-75.212 10.172-102.103-30.091-2.521-55.52-13.026-97.902-26.471-4.238.42-16.528.84-18.224-7.143-1.271-9.244 14.41-15.547 14.41-15.547 39.415-7.563 87.306-25.21 114.854-36.555 2.543-18.068 19.495-69.33 39.415-122.692 1.695-3.781 0-8.403 7.205-11.345 8.476-3.361 13.562 3.362 14.833 7.564 22.886 55.883 35.177 82.354 47.467 106.304 34.753 5.463 37.296 2.942 90.273 11.765 0 0 17.8 1.68 22.462 7.984z"/>
        <path id="e" d="M116.997 44.842c1.413 1.821-5.51 5.042-5.51 5.042-8.193 3.222-13.985 11.765-20.201 17.088 3.673 16.526 5.933 17.087 13.42 37.675 0 0 3.815 3.642-.706 6.303-4.097 2.941-5.792-.7-6.216-1.82C83.94 98.764 77.3 89.1 68.824 85.74 57.239 95.823 54.13 97.924 42.97 109.41c-.283.84-1.695 3.781-4.803 2.94-3.25-.56-2.967-3.781-2.826-4.761-2.119-12.186 2.967-25.071 3.39-34.035-10.03-.84-18.506-4.342-32.633-8.823-1.413.14-5.51.28-6.075-2.381-.423-3.082 4.804-5.183 4.804-5.183 13.138-2.52 29.102-8.403 38.284-12.185.848-6.022 6.499-23.11 13.139-40.897.565-1.26 0-2.801 2.401-3.782 2.826-1.12 4.52 1.12 4.945 2.522 7.628 18.627 11.725 27.451 15.822 35.434 11.584 1.821 12.432.98 30.091 3.922 0 0 5.933.56 7.487 2.661z"/>
        <path id="g" d="M49.042 19.577c.588.756-2.293 2.093-2.293 2.093-3.41 1.338-5.822 4.885-8.409 7.094 1.529 6.862 2.47 7.094 5.586 15.642 0 0 1.588 1.512-.294 2.617-1.705 1.221-2.41-.29-2.587-.756-5.763-4.303-8.527-8.315-12.055-9.71-4.822 4.186-6.115 5.058-10.761 9.826-.118.35-.706 1.57-2 1.221-1.352-.232-1.234-1.57-1.175-1.977-.882-5.059 1.234-10.408 1.41-14.13-4.174-.349-7.702-1.802-13.583-3.663-.588.058-2.293.116-2.529-.989-.176-1.279 2-2.151 2-2.151 5.469-1.047 12.114-3.49 15.936-5.06.353-2.5 2.705-9.594 5.469-16.979.235-.523 0-1.163 1-1.57 1.175-.465 1.881.466 2.057 1.047 3.176 7.734 4.881 11.397 6.587 14.712 4.821.756 5.174.407 12.525 1.628 0 0 2.47.233 3.116 1.105z"/>
    </defs>
    <g fill="none" fill-rule="evenodd">
        <mask id="b" fill="#fff">
            <use xlink:href="#a"/>
        </mask>
        <use fill="#FFF" xlink:href="#a"/>
        <g mask="url(#b)">
            <g transform="rotate(23 631.846 337.337)">
                <mask id="d">
                    <use xlink:href="#c"/>
                </mask>
                <use fill="#e6f5fc" xlink:href="#c"/>
                <g mask="url(#d)">
                    <path d="M-11.719-11.25h375v360h-375z"/>
                </g>
            </g>
        </g>
        <g mask="url(#b)">
            <g transform="rotate(-11 386.22 -2172.089)">
                <mask id="f">
                    <use xlink:href="#e"/>
                </mask>
                <use fill="#ccebf9" xlink:href="#e"/>
                <g mask="url(#f)">
                    <path d="M-3.906-3.75h125v120h-125z"/>
                </g>
            </g>
        </g>
        <g mask="url(#b)">
            <use fill="#CCEBF8" transform="rotate(-20 301.901 -944.623)" xlink:href="#g"/>
        </g>
    </g>
</svg>
